<?xml version="1.0" encoding="UTF-8"?>
<svg xmlns="http://www.w3.org/2000/svg" xmlns:xlink="http://www.w3.org/1999/xlink" width="56px" height="56px" viewBox="0 0 56 56" version="1.1">
<g id="surface1">
<path style=" stroke:none;fill-rule:nonzero;fill:rgb(81.176471%,84.705882%,86.27451%);fill-opacity:1;" d="M 5.832031 44.332031 L 5.832031 16.332031 L 50.167969 16.332031 L 50.167969 44.332031 C 50.167969 46.898438 48.066406 49 45.5 49 L 10.5 49 C 7.933594 49 5.832031 46.898438 5.832031 44.332031 Z M 5.832031 44.332031 "/>
<path style=" stroke:none;fill-rule:nonzero;fill:rgb(95.686275%,26.27451%,21.176471%);fill-opacity:1;" d="M 50.167969 11.667969 L 50.167969 18.667969 L 5.832031 18.667969 L 5.832031 11.667969 C 5.832031 9.101562 7.933594 7 10.5 7 L 45.5 7 C 48.066406 7 50.167969 9.101562 50.167969 11.667969 Z M 50.167969 11.667969 "/>
<path style=" stroke:none;fill-rule:nonzero;fill:rgb(71.764706%,10.980392%,10.980392%);fill-opacity:1;" d="M 35 11.667969 C 35 13.601562 36.566406 15.167969 38.5 15.167969 C 40.433594 15.167969 42 13.601562 42 11.667969 C 42 9.734375 40.433594 8.167969 38.5 8.167969 C 36.566406 8.167969 35 9.734375 35 11.667969 Z M 35 11.667969 "/>
<path style=" stroke:none;fill-rule:nonzero;fill:rgb(71.764706%,10.980392%,10.980392%);fill-opacity:1;" d="M 14 11.667969 C 14 13.601562 15.566406 15.167969 17.5 15.167969 C 19.433594 15.167969 21 13.601562 21 11.667969 C 21 9.734375 19.433594 8.167969 17.5 8.167969 C 15.566406 8.167969 14 9.734375 14 11.667969 Z M 14 11.667969 "/>
<path style=" stroke:none;fill-rule:nonzero;fill:rgb(69.019608%,74.509804%,77.254902%);fill-opacity:1;" d="M 38.5 3.5 C 37.214844 3.5 36.167969 4.550781 36.167969 5.832031 L 36.167969 11.667969 C 36.167969 12.949219 37.214844 14 38.5 14 C 39.785156 14 40.832031 12.949219 40.832031 11.667969 L 40.832031 5.832031 C 40.832031 4.550781 39.785156 3.5 38.5 3.5 Z M 17.5 3.5 C 16.214844 3.5 15.167969 4.550781 15.167969 5.832031 L 15.167969 11.667969 C 15.167969 12.949219 16.214844 14 17.5 14 C 18.785156 14 19.832031 12.949219 19.832031 11.667969 L 19.832031 5.832031 C 19.832031 4.550781 18.785156 3.5 17.5 3.5 Z M 17.5 3.5 "/>
<path style=" stroke:none;fill-rule:nonzero;fill:rgb(56.470588%,64.313725%,68.235294%);fill-opacity:1;" d="M 15.167969 23.332031 L 19.832031 23.332031 L 19.832031 28 L 15.167969 28 Z M 22.167969 23.332031 L 26.832031 23.332031 L 26.832031 28 L 22.167969 28 Z M 29.167969 23.332031 L 33.832031 23.332031 L 33.832031 28 L 29.167969 28 Z M 36.167969 23.332031 L 40.832031 23.332031 L 40.832031 28 L 36.167969 28 Z M 15.167969 30.332031 L 19.832031 30.332031 L 19.832031 35 L 15.167969 35 Z M 22.167969 30.332031 L 26.832031 30.332031 L 26.832031 35 L 22.167969 35 Z M 29.167969 30.332031 L 33.832031 30.332031 L 33.832031 35 L 29.167969 35 Z M 36.167969 30.332031 L 40.832031 30.332031 L 40.832031 35 L 36.167969 35 Z M 15.167969 37.332031 L 19.832031 37.332031 L 19.832031 42 L 15.167969 42 Z M 22.167969 37.332031 L 26.832031 37.332031 L 26.832031 42 L 22.167969 42 Z M 29.167969 37.332031 L 33.832031 37.332031 L 33.832031 42 L 29.167969 42 Z M 36.167969 37.332031 L 40.832031 37.332031 L 40.832031 42 L 36.167969 42 Z M 36.167969 37.332031 "/>
</g>
</svg>
