<?xml version="1.0" encoding="UTF-8"?>
<svg xmlns="http://www.w3.org/2000/svg" xmlns:xlink="http://www.w3.org/1999/xlink" width="24px" height="24px" viewBox="0 0 24 24" version="1.1">
<g id="surface1">
<path style=" stroke:none;fill-rule:evenodd;fill:rgb(0%,0%,0%);fill-opacity:1;" d="M 18 14 C 16.894531 14 16 13.105469 16 12 C 16 10.894531 16.894531 10 18 10 C 19.105469 10 20 10.894531 20 12 C 20 13.105469 19.105469 14 18 14 Z M 6 14 C 4.894531 14 4 13.105469 4 12 C 4 10.894531 4.894531 10 6 10 C 7.105469 10 8 10.894531 8 12 C 8 13.105469 7.105469 14 6 14 Z M 12 14 C 10.894531 14 10 13.105469 10 12 C 10 10.894531 10.894531 10 12 10 C 13.105469 10 14 10.894531 14 12 C 14 13.105469 13.105469 14 12 14 Z M 12 14 "/>
</g>
</svg>
