<?xml version="1.0" encoding="UTF-8"?>
<svg xmlns="http://www.w3.org/2000/svg" xmlns:xlink="http://www.w3.org/1999/xlink" width="24px" height="24px" viewBox="0 0 24 24" version="1.1">
<g id="surface1">
<path style=" stroke:none;fill-rule:nonzero;fill:rgb(100%,84.313725%,76.862745%);fill-opacity:1;" d="M 2.34375 12.421875 C 1.273438 12.382812 0.429688 11.484375 0.449219 10.417969 C 0.488281 9.386719 1.3125 8.5625 2.34375 8.523438 L 10.511719 8.523438 C 10.511719 8.523438 9.535156 6.761719 9.5 4.984375 C 9.460938 3.203125 9.425781 3.484375 9.425781 1.722656 C 9.425781 -0.0390625 12.328125 -0.261719 12.421875 1.929688 C 12.535156 4.515625 13.5625 8.691406 19.355469 11.578125 C 19.355469 15.585938 19.464844 20.007812 19.355469 20.460938 C 17.796875 22.21875 15.585938 23.457031 13.003906 23.476562 C 10.417969 23.496094 4.476562 23.585938 4.476562 23.585938 C 3.429688 23.550781 2.605469 22.667969 2.640625 21.640625 C 2.679688 20.644531 3.484375 19.839844 4.476562 19.804688 "/>
<path style=" stroke:none;fill-rule:nonzero;fill:rgb(9.803922%,9.803922%,9.803922%);fill-opacity:1;" d="M 4.476562 24 C 3.203125 23.960938 2.230469 22.914062 2.265625 21.65625 C 2.304688 20.460938 3.277344 19.503906 4.460938 19.464844 C 4.664062 19.449219 4.832031 19.617188 4.851562 19.820312 C 4.851562 20.027344 4.703125 20.195312 4.496094 20.214844 C 3.691406 20.234375 3.054688 20.890625 3.015625 21.695312 C 2.996094 22.539062 3.652344 23.230469 4.496094 23.269531 C 4.535156 23.269531 10.453125 23.175781 13.003906 23.15625 C 15.25 23.136719 17.386719 22.144531 18.996094 20.347656 C 19.054688 19.878906 19.015625 17.929688 18.996094 16.019531 C 18.980469 14.726562 18.960938 13.265625 18.960938 11.859375 C 14.613281 9.628906 12.214844 6.21875 12.027344 2.003906 C 11.992188 1.085938 11.355469 0.769531 10.847656 0.785156 C 10.34375 0.804688 9.78125 1.125 9.78125 1.78125 C 9.78125 2.921875 9.796875 3.203125 9.816406 3.746094 C 9.835938 4.046875 9.835938 4.402344 9.855469 5.019531 C 9.890625 6.6875 10.808594 8.375 10.828125 8.394531 L 11.128906 8.957031 L 2.324219 8.957031 C 1.5 8.972656 0.84375 9.648438 0.804688 10.472656 C 0.785156 11.335938 1.460938 12.066406 2.324219 12.085938 C 2.527344 12.085938 2.699219 12.273438 2.679688 12.476562 C 2.679688 12.683594 2.492188 12.851562 2.285156 12.832031 C 1.011719 12.796875 0 11.726562 0.0390625 10.4375 C 0.0742188 9.21875 1.066406 8.226562 2.285156 8.1875 L 9.855469 8.1875 C 9.554688 7.511719 9.085938 6.296875 9.066406 5.039062 C 9.050781 4.441406 9.03125 4.066406 9.03125 3.785156 C 9.011719 3.222656 8.992188 2.941406 8.992188 1.78125 C 8.992188 0.675781 9.910156 0.0546875 10.792969 0.0390625 C 11.691406 0.0195312 12.683594 0.617188 12.738281 1.984375 C 12.925781 6.050781 15.195312 9.179688 19.464844 11.316406 L 19.671875 11.429688 L 19.671875 11.617188 C 19.671875 13.097656 19.691406 14.632812 19.710938 16 C 19.746094 19.089844 19.746094 20.289062 19.671875 20.589844 L 19.652344 20.683594 L 19.597656 20.757812 C 17.835938 22.761719 15.476562 23.886719 12.964844 23.90625 C 10.453125 23.90625 4.535156 24 4.476562 24 Z M 4.476562 24 "/>
<path style=" stroke:none;fill-rule:nonzero;fill:rgb(100%,84.313725%,76.862745%);fill-opacity:1;" d="M 3.429688 16.226562 C 2.324219 16.394531 1.238281 15.363281 1.238281 14.332031 C 1.238281 13.207031 1.816406 12.535156 2.34375 12.441406 "/>
<path style=" stroke:none;fill-rule:nonzero;fill:rgb(9.803922%,9.803922%,9.803922%);fill-opacity:1;" d="M 3.183594 16.617188 C 2.660156 16.617188 2.136719 16.414062 1.703125 16.039062 C 1.179688 15.585938 0.863281 14.949219 0.863281 14.3125 C 0.863281 13.003906 1.574219 12.179688 2.265625 12.046875 C 2.472656 12.007812 2.660156 12.140625 2.699219 12.347656 C 2.734375 12.550781 2.605469 12.738281 2.398438 12.777344 C 2.078125 12.832031 1.59375 13.359375 1.59375 14.3125 C 1.59375 14.726562 1.816406 15.136719 2.171875 15.457031 C 2.527344 15.757812 2.960938 15.90625 3.355469 15.832031 C 3.558594 15.792969 3.746094 15.945312 3.785156 16.148438 C 3.820312 16.355469 3.671875 16.542969 3.464844 16.582031 C 3.390625 16.597656 3.277344 16.617188 3.183594 16.617188 Z M 3.183594 16.617188 "/>
<path style=" stroke:none;fill-rule:nonzero;fill:rgb(100%,84.313725%,76.862745%);fill-opacity:1;" d="M 4.476562 19.820312 C 3.183594 19.933594 2.003906 19.316406 1.949219 18.117188 C 1.890625 17.199219 2.527344 16.375 3.449219 16.226562 "/>
<path style=" stroke:none;fill-rule:nonzero;fill:rgb(9.803922%,9.803922%,9.803922%);fill-opacity:1;" d="M 4.160156 20.214844 C 3.410156 20.214844 2.714844 19.992188 2.25 19.578125 C 1.816406 19.203125 1.59375 18.714844 1.554688 18.136719 C 1.480469 17.03125 2.265625 16.039062 3.371094 15.851562 C 3.578125 15.8125 3.765625 15.945312 3.804688 16.148438 C 3.839844 16.355469 3.691406 16.542969 3.503906 16.582031 C 2.773438 16.710938 2.265625 17.347656 2.324219 18.078125 C 2.34375 18.453125 2.492188 18.753906 2.753906 18.996094 C 3.148438 19.335938 3.765625 19.503906 4.441406 19.449219 C 4.644531 19.429688 4.832031 19.578125 4.851562 19.785156 C 4.871094 19.992188 4.722656 20.179688 4.515625 20.195312 C 4.382812 20.214844 4.273438 20.214844 4.160156 20.214844 Z M 4.160156 20.214844 "/>
<path style=" stroke:none;fill-rule:nonzero;fill:rgb(100%,100%,100%);fill-opacity:1;" d="M 19.710938 9.6875 L 22.988281 9.6875 C 23.324219 9.6875 23.605469 9.96875 23.605469 10.304688 L 23.605469 23.007812 C 23.605469 23.34375 23.324219 23.625 22.988281 23.625 L 19.710938 23.625 C 19.371094 23.625 19.089844 23.34375 19.089844 23.007812 L 19.089844 10.304688 C 19.089844 9.96875 19.371094 9.6875 19.710938 9.6875 Z M 19.710938 9.6875 "/>
<path style=" stroke:none;fill-rule:nonzero;fill:rgb(9.803922%,9.803922%,9.803922%);fill-opacity:1;" d="M 22.988281 24 L 19.710938 24 C 19.167969 24 18.714844 23.550781 18.714844 23.007812 L 18.714844 10.304688 C 18.714844 9.761719 19.167969 9.3125 19.710938 9.3125 L 22.988281 9.3125 C 23.53125 9.3125 23.980469 9.761719 23.980469 10.304688 L 23.980469 23.007812 C 23.960938 23.550781 23.53125 24 22.988281 24 Z M 19.710938 10.0625 C 19.578125 10.0625 19.464844 10.171875 19.464844 10.304688 L 19.464844 23.007812 C 19.464844 23.136719 19.578125 23.25 19.710938 23.25 L 22.988281 23.25 C 23.121094 23.25 23.230469 23.136719 23.230469 23.007812 L 23.230469 10.304688 C 23.230469 10.171875 23.121094 10.0625 22.988281 10.0625 Z M 19.710938 10.0625 "/>
<path style=" stroke:none;fill-rule:nonzero;fill:rgb(43.921569%,61.176471%,83.529412%);fill-opacity:1;" d="M 20.722656 21.378906 C 20.722656 21.761719 21.03125 22.070312 21.414062 22.070312 C 21.796875 22.070312 22.109375 21.761719 22.109375 21.378906 C 22.109375 20.996094 21.796875 20.683594 21.414062 20.683594 C 21.03125 20.683594 20.722656 20.996094 20.722656 21.378906 Z M 20.722656 21.378906 "/>
<path style=" stroke:none;fill-rule:nonzero;fill:rgb(9.803922%,9.803922%,9.803922%);fill-opacity:1;" d="M 21.414062 22.445312 C 20.832031 22.445312 20.347656 21.957031 20.347656 21.378906 C 20.347656 20.796875 20.832031 20.308594 21.414062 20.308594 C 21.996094 20.308594 22.484375 20.796875 22.484375 21.378906 C 22.464844 21.976562 21.996094 22.445312 21.414062 22.445312 Z M 21.414062 21.078125 C 21.246094 21.078125 21.097656 21.226562 21.097656 21.394531 C 21.097656 21.5625 21.246094 21.714844 21.414062 21.714844 C 21.582031 21.714844 21.734375 21.5625 21.734375 21.394531 C 21.734375 21.226562 21.582031 21.078125 21.414062 21.078125 Z M 21.414062 21.078125 "/>
<path style=" stroke:none;fill-rule:nonzero;fill:rgb(9.803922%,9.803922%,9.803922%);fill-opacity:1;" d="M 22.089844 19.597656 C 21.882812 19.597656 21.714844 19.429688 21.714844 19.222656 L 21.714844 11.074219 C 21.714844 10.867188 21.882812 10.699219 22.089844 10.699219 C 22.296875 10.699219 22.464844 10.867188 22.464844 11.074219 L 22.464844 19.222656 C 22.464844 19.429688 22.296875 19.597656 22.089844 19.597656 Z M 22.089844 19.597656 "/>
<path style=" stroke:none;fill-rule:nonzero;fill:rgb(9.803922%,9.803922%,9.803922%);fill-opacity:1;" d="M 6.519531 12.738281 L 4.816406 12.738281 C 4.609375 12.738281 4.441406 12.570312 4.441406 12.367188 C 4.441406 12.160156 4.609375 11.992188 4.816406 11.992188 L 6.519531 11.992188 C 6.726562 11.992188 6.894531 12.160156 6.894531 12.367188 C 6.894531 12.570312 6.726562 12.738281 6.519531 12.738281 Z M 6.519531 12.738281 "/>
<path style=" stroke:none;fill-rule:nonzero;fill:rgb(9.803922%,9.803922%,9.803922%);fill-opacity:1;" d="M 7.214844 16.542969 L 5.507812 16.542969 C 5.300781 16.542969 5.132812 16.375 5.132812 16.167969 C 5.132812 15.960938 5.300781 15.792969 5.507812 15.792969 L 7.214844 15.792969 C 7.417969 15.792969 7.585938 15.960938 7.585938 16.167969 C 7.585938 16.375 7.417969 16.542969 7.214844 16.542969 Z M 7.214844 16.542969 "/>
<path style=" stroke:none;fill-rule:nonzero;fill:rgb(9.803922%,9.803922%,9.803922%);fill-opacity:1;" d="M 7.960938 20.253906 L 6.257812 20.253906 C 6.050781 20.253906 5.882812 20.085938 5.882812 19.878906 C 5.882812 19.671875 6.050781 19.503906 6.257812 19.503906 L 7.960938 19.503906 C 8.167969 19.503906 8.335938 19.671875 8.335938 19.878906 C 8.335938 20.085938 8.167969 20.253906 7.960938 20.253906 Z M 7.960938 20.253906 "/>
</g>
</svg>
