<?xml version="1.0" encoding="UTF-8"?>
<svg xmlns="http://www.w3.org/2000/svg" xmlns:xlink="http://www.w3.org/1999/xlink" width="16px" height="16px" viewBox="0 0 16 16" version="1.1">
<g id="surface1">
<path style=" stroke:none;fill-rule:nonzero;fill:rgb(100%,84.313725%,76.862745%);fill-opacity:1;" d="M 1.5625 8.28125 C 0.847656 8.257812 0.289062 7.65625 0.300781 6.945312 C 0.324219 6.257812 0.875 5.707031 1.5625 5.683594 L 7.007812 5.683594 C 7.007812 5.683594 6.359375 4.507812 6.332031 3.324219 C 6.308594 2.136719 6.28125 2.324219 6.28125 1.148438 C 6.28125 -0.0234375 8.21875 -0.175781 8.28125 1.285156 C 8.355469 3.011719 9.042969 5.796875 12.902344 7.71875 C 12.902344 10.390625 12.976562 13.339844 12.902344 13.640625 C 11.867188 14.8125 10.390625 15.636719 8.667969 15.648438 C 6.945312 15.664062 2.984375 15.726562 2.984375 15.726562 C 2.285156 15.699219 1.734375 15.113281 1.761719 14.425781 C 1.785156 13.765625 2.324219 13.226562 2.984375 13.203125 "/>
<path style=" stroke:none;fill-rule:nonzero;fill:rgb(9.803922%,9.803922%,9.803922%);fill-opacity:1;" d="M 2.984375 16 C 2.136719 15.976562 1.488281 15.277344 1.511719 14.4375 C 1.535156 13.640625 2.1875 13.003906 2.972656 12.976562 C 3.109375 12.964844 3.222656 13.078125 3.234375 13.214844 C 3.234375 13.351562 3.136719 13.464844 2.996094 13.476562 C 2.460938 13.488281 2.035156 13.925781 2.011719 14.464844 C 2 15.027344 2.4375 15.488281 2.996094 15.511719 C 3.023438 15.511719 6.96875 15.449219 8.667969 15.4375 C 10.167969 15.425781 11.589844 14.761719 12.664062 13.5625 C 12.703125 13.253906 12.675781 11.953125 12.664062 10.679688 C 12.652344 9.816406 12.640625 8.84375 12.640625 7.90625 C 9.742188 6.421875 8.144531 4.148438 8.019531 1.335938 C 7.992188 0.722656 7.570312 0.511719 7.230469 0.523438 C 6.894531 0.535156 6.519531 0.75 6.519531 1.1875 C 6.519531 1.949219 6.53125 2.136719 6.542969 2.5 C 6.558594 2.699219 6.558594 2.933594 6.570312 3.347656 C 6.59375 4.460938 7.207031 5.582031 7.21875 5.59375 L 7.417969 5.96875 L 1.546875 5.96875 C 1 5.984375 0.5625 6.433594 0.535156 6.980469 C 0.523438 7.554688 0.972656 8.042969 1.546875 8.054688 C 1.6875 8.054688 1.796875 8.179688 1.785156 8.320312 C 1.785156 8.457031 1.660156 8.566406 1.523438 8.554688 C 0.675781 8.53125 0 7.820312 0.0234375 6.957031 C 0.0507812 6.144531 0.710938 5.484375 1.523438 5.457031 L 6.570312 5.457031 C 6.371094 5.007812 6.058594 4.195312 6.046875 3.359375 C 6.03125 2.960938 6.019531 2.710938 6.019531 2.523438 C 6.007812 2.148438 5.996094 1.960938 5.996094 1.1875 C 5.996094 0.449219 6.605469 0.0390625 7.195312 0.0234375 C 7.792969 0.0117188 8.457031 0.414062 8.492188 1.324219 C 8.617188 4.035156 10.128906 6.121094 12.976562 7.542969 L 13.113281 7.617188 L 13.113281 7.742188 C 13.113281 8.730469 13.128906 9.753906 13.140625 10.667969 C 13.164062 12.726562 13.164062 13.527344 13.113281 13.726562 L 13.101562 13.789062 L 13.066406 13.839844 C 11.890625 15.175781 10.316406 15.925781 8.644531 15.9375 C 6.96875 15.9375 3.023438 16 2.984375 16 Z M 2.984375 16 "/>
<path style=" stroke:none;fill-rule:nonzero;fill:rgb(100%,84.313725%,76.862745%);fill-opacity:1;" d="M 2.285156 10.816406 C 1.546875 10.929688 0.824219 10.242188 0.824219 9.554688 C 0.824219 8.804688 1.210938 8.355469 1.5625 8.292969 "/>
<path style=" stroke:none;fill-rule:nonzero;fill:rgb(9.803922%,9.803922%,9.803922%);fill-opacity:1;" d="M 2.125 11.078125 C 1.773438 11.078125 1.425781 10.941406 1.136719 10.691406 C 0.785156 10.390625 0.574219 9.96875 0.574219 9.542969 C 0.574219 8.667969 1.050781 8.117188 1.511719 8.03125 C 1.648438 8.007812 1.773438 8.09375 1.796875 8.230469 C 1.824219 8.367188 1.734375 8.492188 1.597656 8.519531 C 1.386719 8.554688 1.0625 8.90625 1.0625 9.542969 C 1.0625 9.816406 1.210938 10.09375 1.449219 10.304688 C 1.6875 10.503906 1.972656 10.605469 2.234375 10.554688 C 2.375 10.527344 2.5 10.628906 2.523438 10.765625 C 2.546875 10.902344 2.449219 11.027344 2.3125 11.054688 C 2.261719 11.066406 2.1875 11.078125 2.125 11.078125 Z M 2.125 11.078125 "/>
<path style=" stroke:none;fill-rule:nonzero;fill:rgb(100%,84.313725%,76.862745%);fill-opacity:1;" d="M 2.984375 13.214844 C 2.125 13.289062 1.335938 12.878906 1.300781 12.078125 C 1.261719 11.464844 1.6875 10.917969 2.296875 10.816406 "/>
<path style=" stroke:none;fill-rule:nonzero;fill:rgb(9.803922%,9.803922%,9.803922%);fill-opacity:1;" d="M 2.773438 13.476562 C 2.273438 13.476562 1.8125 13.328125 1.5 13.050781 C 1.210938 12.800781 1.0625 12.476562 1.035156 12.089844 C 0.988281 11.355469 1.511719 10.691406 2.25 10.566406 C 2.386719 10.542969 2.511719 10.628906 2.535156 10.765625 C 2.558594 10.902344 2.460938 11.027344 2.335938 11.054688 C 1.847656 11.140625 1.511719 11.566406 1.546875 12.054688 C 1.5625 12.304688 1.660156 12.503906 1.835938 12.664062 C 2.097656 12.890625 2.511719 13.003906 2.960938 12.964844 C 3.097656 12.953125 3.222656 13.050781 3.234375 13.191406 C 3.246094 13.328125 3.148438 13.453125 3.011719 13.464844 C 2.921875 13.476562 2.847656 13.476562 2.773438 13.476562 Z M 2.773438 13.476562 "/>
<path style=" stroke:none;fill-rule:nonzero;fill:rgb(100%,100%,100%);fill-opacity:1;" d="M 13.140625 6.457031 L 15.324219 6.457031 C 15.550781 6.457031 15.738281 6.644531 15.738281 6.871094 L 15.738281 15.339844 C 15.738281 15.5625 15.550781 15.75 15.324219 15.75 L 13.140625 15.75 C 12.914062 15.75 12.726562 15.5625 12.726562 15.339844 L 12.726562 6.871094 C 12.726562 6.644531 12.914062 6.457031 13.140625 6.457031 Z M 13.140625 6.457031 "/>
<path style=" stroke:none;fill-rule:nonzero;fill:rgb(9.803922%,9.803922%,9.803922%);fill-opacity:1;" d="M 15.324219 16 L 13.140625 16 C 12.777344 16 12.476562 15.699219 12.476562 15.339844 L 12.476562 6.871094 C 12.476562 6.507812 12.777344 6.207031 13.140625 6.207031 L 15.324219 6.207031 C 15.6875 6.207031 15.988281 6.507812 15.988281 6.871094 L 15.988281 15.339844 C 15.976562 15.699219 15.6875 16 15.324219 16 Z M 13.140625 6.707031 C 13.050781 6.707031 12.976562 6.78125 12.976562 6.871094 L 12.976562 15.339844 C 12.976562 15.425781 13.050781 15.5 13.140625 15.5 L 15.324219 15.5 C 15.414062 15.5 15.488281 15.425781 15.488281 15.339844 L 15.488281 6.871094 C 15.488281 6.78125 15.414062 6.707031 15.324219 6.707031 Z M 13.140625 6.707031 "/>
<path style=" stroke:none;fill-rule:nonzero;fill:rgb(43.921569%,61.176471%,83.529412%);fill-opacity:1;" d="M 13.8125 14.25 C 13.8125 14.507812 14.019531 14.714844 14.277344 14.714844 C 14.53125 14.714844 14.738281 14.507812 14.738281 14.25 C 14.738281 13.996094 14.53125 13.789062 14.277344 13.789062 C 14.019531 13.789062 13.8125 13.996094 13.8125 14.25 Z M 13.8125 14.25 "/>
<path style=" stroke:none;fill-rule:nonzero;fill:rgb(9.803922%,9.803922%,9.803922%);fill-opacity:1;" d="M 14.277344 14.964844 C 13.890625 14.964844 13.5625 14.636719 13.5625 14.25 C 13.5625 13.863281 13.890625 13.539062 14.277344 13.539062 C 14.664062 13.539062 14.988281 13.863281 14.988281 14.25 C 14.976562 14.652344 14.664062 14.964844 14.277344 14.964844 Z M 14.277344 14.050781 C 14.164062 14.050781 14.0625 14.152344 14.0625 14.265625 C 14.0625 14.375 14.164062 14.476562 14.277344 14.476562 C 14.390625 14.476562 14.488281 14.375 14.488281 14.265625 C 14.488281 14.152344 14.390625 14.050781 14.277344 14.050781 Z M 14.277344 14.050781 "/>
<path style=" stroke:none;fill-rule:nonzero;fill:rgb(9.803922%,9.803922%,9.803922%);fill-opacity:1;" d="M 14.726562 13.066406 C 14.589844 13.066406 14.476562 12.953125 14.476562 12.816406 L 14.476562 7.382812 C 14.476562 7.246094 14.589844 7.132812 14.726562 7.132812 C 14.863281 7.132812 14.976562 7.246094 14.976562 7.382812 L 14.976562 12.816406 C 14.976562 12.953125 14.863281 13.066406 14.726562 13.066406 Z M 14.726562 13.066406 "/>
<path style=" stroke:none;fill-rule:nonzero;fill:rgb(9.803922%,9.803922%,9.803922%);fill-opacity:1;" d="M 4.347656 8.492188 L 3.210938 8.492188 C 3.074219 8.492188 2.960938 8.382812 2.960938 8.242188 C 2.960938 8.105469 3.074219 7.992188 3.210938 7.992188 L 4.347656 7.992188 C 4.484375 7.992188 4.597656 8.105469 4.597656 8.242188 C 4.597656 8.382812 4.484375 8.492188 4.347656 8.492188 Z M 4.347656 8.492188 "/>
<path style=" stroke:none;fill-rule:nonzero;fill:rgb(9.803922%,9.803922%,9.803922%);fill-opacity:1;" d="M 4.808594 11.027344 L 3.671875 11.027344 C 3.535156 11.027344 3.421875 10.917969 3.421875 10.777344 C 3.421875 10.640625 3.535156 10.527344 3.671875 10.527344 L 4.808594 10.527344 C 4.945312 10.527344 5.058594 10.640625 5.058594 10.777344 C 5.058594 10.917969 4.945312 11.027344 4.808594 11.027344 Z M 4.808594 11.027344 "/>
<path style=" stroke:none;fill-rule:nonzero;fill:rgb(9.803922%,9.803922%,9.803922%);fill-opacity:1;" d="M 5.308594 13.5 L 4.171875 13.5 C 4.035156 13.5 3.921875 13.390625 3.921875 13.253906 C 3.921875 13.113281 4.035156 13.003906 4.171875 13.003906 L 5.308594 13.003906 C 5.445312 13.003906 5.558594 13.113281 5.558594 13.253906 C 5.558594 13.390625 5.445312 13.5 5.308594 13.5 Z M 5.308594 13.5 "/>
</g>
</svg>
