<?xml version="1.0" encoding="UTF-8"?>
<svg xmlns="http://www.w3.org/2000/svg" xmlns:xlink="http://www.w3.org/1999/xlink" width="56px" height="56px" viewBox="0 0 56 56" version="1.1">
<g id="surface1">
<path style=" stroke:none;fill-rule:nonzero;fill:rgb(90.196078%,90.588235%,90.980392%);fill-opacity:1;" d="M 34.78125 55.015625 L 7.636719 55.015625 C 6.753906 55.015625 6.042969 54.304688 6.042969 53.421875 L 6.042969 5.523438 C 6.042969 4.644531 6.753906 3.929688 7.636719 3.929688 L 48.277344 3.929688 C 49.15625 3.929688 49.871094 4.644531 49.871094 5.523438 L 49.871094 39.925781 C 49.871094 48.261719 43.113281 55.015625 34.78125 55.015625 Z M 34.78125 55.015625 "/>
<path style=" stroke:none;fill-rule:nonzero;fill:rgb(90.196078%,90.588235%,90.980392%);fill-opacity:1;" d="M 48.300781 55.015625 L 7.609375 55.015625 C 6.742188 55.015625 6.042969 54.316406 6.042969 53.449219 L 6.042969 5.5 C 6.042969 4.632812 6.742188 3.929688 7.609375 3.929688 L 48.300781 3.929688 C 49.167969 3.929688 49.871094 4.632812 49.871094 5.5 L 49.871094 53.449219 C 49.871094 54.316406 49.167969 55.015625 48.300781 55.015625 Z M 48.300781 55.015625 "/>
<path style=" stroke:none;fill-rule:nonzero;fill:rgb(81.960784%,82.745098%,83.137255%);fill-opacity:1;" d="M 16.066406 3.929688 L 14.695312 7.542969 C 14.695312 8.085938 15.136719 8.527344 15.679688 8.527344 C 16.222656 8.527344 16.664062 8.085938 16.664062 7.542969 L 18.03125 3.929688 C 18.03125 3.929688 16.066406 3.929688 16.066406 3.929688 Z M 16.066406 3.929688 "/>
<path style=" stroke:none;fill-rule:nonzero;fill:rgb(81.960784%,82.745098%,83.137255%);fill-opacity:1;" d="M 21.039062 3.929688 L 19.671875 7.542969 C 19.671875 8.085938 20.109375 8.527344 20.652344 8.527344 C 21.195312 8.527344 21.636719 8.085938 21.636719 7.542969 L 23.003906 3.929688 C 23.003906 3.929688 21.039062 3.929688 21.039062 3.929688 Z M 21.039062 3.929688 "/>
<path style=" stroke:none;fill-rule:nonzero;fill:rgb(81.960784%,82.745098%,83.137255%);fill-opacity:1;" d="M 26.011719 3.929688 L 24.644531 7.542969 C 24.644531 8.085938 25.082031 8.527344 25.625 8.527344 C 26.167969 8.527344 26.609375 8.085938 26.609375 7.542969 L 27.976562 3.929688 C 27.976562 3.929688 26.011719 3.929688 26.011719 3.929688 Z M 26.011719 3.929688 "/>
<path style=" stroke:none;fill-rule:nonzero;fill:rgb(81.960784%,82.745098%,83.137255%);fill-opacity:1;" d="M 11.09375 3.929688 L 9.722656 7.542969 C 9.722656 8.085938 10.164062 8.527344 10.707031 8.527344 C 11.25 8.527344 11.691406 8.085938 11.691406 7.542969 L 13.058594 3.929688 C 13.058594 3.929688 11.09375 3.929688 11.09375 3.929688 Z M 11.09375 3.929688 "/>
<path style=" stroke:none;fill-rule:nonzero;fill:rgb(81.960784%,82.745098%,83.137255%);fill-opacity:1;" d="M 45.90625 3.929688 L 44.535156 7.542969 C 44.535156 8.085938 44.976562 8.527344 45.519531 8.527344 C 46.0625 8.527344 46.5 8.085938 46.5 7.542969 L 47.871094 3.929688 C 47.871094 3.929688 45.90625 3.929688 45.90625 3.929688 Z M 45.90625 3.929688 "/>
<path style=" stroke:none;fill-rule:nonzero;fill:rgb(81.960784%,82.745098%,83.137255%);fill-opacity:1;" d="M 40.933594 3.929688 L 39.5625 7.542969 C 39.5625 8.085938 40.003906 8.527344 40.546875 8.527344 C 41.089844 8.527344 41.527344 8.085938 41.527344 7.542969 L 42.898438 3.929688 C 42.898438 3.929688 40.933594 3.929688 40.933594 3.929688 Z M 40.933594 3.929688 "/>
<path style=" stroke:none;fill-rule:nonzero;fill:rgb(81.960784%,82.745098%,83.137255%);fill-opacity:1;" d="M 30.984375 3.929688 L 29.617188 7.542969 C 29.617188 8.085938 30.054688 8.527344 30.597656 8.527344 C 31.140625 8.527344 31.582031 8.085938 31.582031 7.542969 L 32.953125 3.929688 C 32.953125 3.929688 30.984375 3.929688 30.984375 3.929688 Z M 30.984375 3.929688 "/>
<path style=" stroke:none;fill-rule:nonzero;fill:rgb(81.960784%,82.745098%,83.137255%);fill-opacity:1;" d="M 35.957031 3.929688 L 34.589844 7.542969 C 34.589844 8.085938 35.03125 8.527344 35.570312 8.527344 C 36.113281 8.527344 36.554688 8.085938 36.554688 7.542969 L 37.925781 3.929688 C 37.925781 3.929688 35.957031 3.929688 35.957031 3.929688 Z M 35.957031 3.929688 "/>
<path style=" stroke:none;fill-rule:nonzero;fill:rgb(73.72549%,74.509804%,75.294118%);fill-opacity:1;" d="M 49.871094 53.449219 L 49.871094 39.90625 L 49.871094 39.980469 L 34.988281 55.015625 L 48.300781 55.015625 C 49.167969 55.015625 49.871094 54.316406 49.871094 53.449219 Z M 49.871094 53.449219 "/>
<path style=" stroke:none;fill-rule:nonzero;fill:rgb(65.490196%,66.27451%,67.45098%);fill-opacity:1;" d="M 20.507812 50.925781 L 11.191406 50.925781 C 10.925781 50.925781 10.707031 50.707031 10.707031 50.4375 L 10.707031 43.109375 C 10.707031 42.839844 10.925781 42.625 11.191406 42.625 L 20.507812 42.625 C 20.777344 42.625 20.996094 42.839844 20.996094 43.109375 L 20.996094 50.4375 C 20.996094 50.707031 20.777344 50.925781 20.507812 50.925781 Z M 20.507812 50.925781 "/>
<path style=" stroke:none;fill-rule:nonzero;fill:rgb(81.960784%,82.745098%,83.137255%);fill-opacity:1;" d="M 39.664062 44.621094 C 39.632812 44.621094 39.605469 44.621094 39.574219 44.621094 C 39.574219 44.683594 39.574219 44.746094 39.574219 44.808594 C 39.574219 48.898438 37.742188 52.558594 34.851562 55.015625 C 43.148438 54.945312 49.851562 48.210938 49.871094 39.902344 C 47.414062 42.789062 43.753906 44.621094 39.664062 44.621094 Z M 39.664062 44.621094 "/>
<path style=" stroke:none;fill-rule:nonzero;fill:rgb(0%,0%,0%);fill-opacity:1;" d="M 11.191406 41.640625 C 10.382812 41.640625 9.722656 42.300781 9.722656 43.109375 L 9.722656 50.4375 C 9.722656 51.246094 10.382812 51.90625 11.191406 51.90625 L 20.507812 51.90625 C 21.320312 51.90625 21.976562 51.246094 21.976562 50.4375 L 21.976562 43.109375 C 21.976562 42.300781 21.320312 41.640625 20.507812 41.640625 Z M 20.011719 49.941406 L 11.691406 49.941406 L 11.691406 43.605469 L 20.011719 43.605469 Z M 20.011719 49.941406 "/>
<path style=" stroke:none;fill-rule:nonzero;fill:rgb(0%,0%,0%);fill-opacity:1;" d="M 49.871094 15.003906 C 49.328125 15.003906 48.886719 15.445312 48.886719 15.988281 L 48.886719 39.535156 C 46.53125 42.148438 43.191406 43.640625 39.664062 43.640625 L 39.582031 43.636719 C 39.3125 43.632812 39.0625 43.742188 38.875 43.929688 C 38.691406 44.117188 38.585938 44.371094 38.589844 44.632812 L 38.589844 44.695312 C 38.59375 44.734375 38.59375 44.769531 38.59375 44.808594 C 38.59375 48.335938 37.097656 51.679688 34.480469 54.035156 L 7.636719 54.035156 C 7.300781 54.035156 7.023438 53.761719 7.023438 53.421875 L 7.023438 5.523438 C 7.023438 5.1875 7.296875 4.914062 7.636719 4.914062 L 9.722656 4.914062 L 9.722656 7.542969 C 9.722656 8.085938 10.164062 8.527344 10.707031 8.527344 C 11.25 8.527344 11.691406 8.085938 11.691406 7.542969 L 11.691406 4.914062 L 14.695312 4.914062 L 14.695312 7.542969 C 14.695312 8.085938 15.136719 8.527344 15.679688 8.527344 C 16.222656 8.527344 16.664062 8.085938 16.664062 7.542969 L 16.664062 4.914062 L 19.671875 4.914062 L 19.671875 7.542969 C 19.671875 8.085938 20.109375 8.527344 20.652344 8.527344 C 21.195312 8.527344 21.636719 8.085938 21.636719 7.542969 L 21.636719 4.914062 L 24.644531 4.914062 L 24.644531 7.542969 C 24.644531 8.085938 25.082031 8.527344 25.625 8.527344 C 26.167969 8.527344 26.609375 8.085938 26.609375 7.542969 L 26.609375 4.914062 L 29.617188 4.914062 L 29.617188 7.542969 C 29.617188 8.085938 30.054688 8.527344 30.597656 8.527344 C 31.140625 8.527344 31.582031 8.085938 31.582031 7.542969 L 31.582031 4.914062 L 34.589844 4.914062 L 34.589844 7.542969 C 34.589844 8.085938 35.027344 8.527344 35.570312 8.527344 C 36.113281 8.527344 36.554688 8.085938 36.554688 7.542969 L 36.554688 4.914062 L 39.5625 4.914062 L 39.5625 7.542969 C 39.5625 8.085938 40.003906 8.527344 40.546875 8.527344 C 41.089844 8.527344 41.527344 8.085938 41.527344 7.542969 L 41.527344 4.914062 L 44.535156 4.914062 L 44.535156 7.542969 C 44.535156 8.085938 44.976562 8.527344 45.519531 8.527344 C 46.0625 8.527344 46.5 8.085938 46.5 7.542969 L 46.5 4.914062 L 48.277344 4.914062 C 48.613281 4.914062 48.886719 5.1875 48.886719 5.523438 L 48.886719 8.210938 C 48.886719 8.753906 49.328125 9.195312 49.871094 9.195312 C 50.414062 9.195312 50.851562 8.753906 50.851562 8.210938 L 50.851562 5.5 C 50.851562 4.09375 49.707031 2.949219 48.300781 2.949219 L 46.5 2.949219 L 46.5 0.984375 C 46.5 0.441406 46.0625 0 45.519531 0 C 44.976562 0 44.535156 0.441406 44.535156 0.984375 L 44.535156 2.949219 L 41.527344 2.949219 L 41.527344 0.984375 C 41.527344 0.441406 41.085938 0 40.546875 0 C 40.003906 0 39.5625 0.441406 39.5625 0.984375 L 39.5625 2.949219 L 36.554688 2.949219 L 36.554688 0.984375 C 36.554688 0.441406 36.113281 0 35.570312 0 C 35.027344 0 34.589844 0.441406 34.589844 0.984375 L 34.589844 2.949219 L 31.582031 2.949219 L 31.582031 0.984375 C 31.582031 0.441406 31.140625 0 30.597656 0 C 30.054688 0 29.617188 0.441406 29.617188 0.984375 L 29.617188 2.949219 L 26.609375 2.949219 L 26.609375 0.984375 C 26.609375 0.441406 26.167969 0 25.625 0 C 25.082031 0 24.644531 0.441406 24.644531 0.984375 L 24.644531 2.949219 L 21.636719 2.949219 L 21.636719 0.984375 C 21.636719 0.441406 21.195312 0 20.652344 0 C 20.109375 0 19.671875 0.441406 19.671875 0.984375 L 19.671875 2.949219 L 16.664062 2.949219 L 16.664062 0.984375 C 16.664062 0.441406 16.222656 0 15.679688 0 C 15.136719 0 14.695312 0.441406 14.695312 0.984375 L 14.695312 2.949219 L 11.691406 2.949219 L 11.691406 0.984375 C 11.691406 0.441406 11.25 0 10.707031 0 C 10.164062 0 9.722656 0.441406 9.722656 0.984375 L 9.722656 2.949219 L 7.609375 2.949219 C 6.203125 2.949219 5.058594 4.09375 5.058594 5.5 L 5.058594 53.449219 C 5.058594 54.855469 6.203125 56 7.609375 56 L 48.300781 56 C 49.707031 56 50.851562 54.855469 50.851562 53.449219 L 50.851562 15.988281 C 50.851562 15.445312 50.414062 15.003906 49.871094 15.003906 Z M 40.539062 45.578125 C 43.519531 45.398438 46.347656 44.296875 48.652344 42.449219 C 48.144531 45.238281 46.808594 47.804688 44.765625 49.855469 C 42.734375 51.898438 40.1875 53.246094 37.414062 53.777344 C 39.277344 51.449219 40.375 48.589844 40.539062 45.578125 Z M 48.886719 53.449219 C 48.886719 53.773438 48.625 54.035156 48.300781 54.035156 L 42.476562 54.035156 C 45.175781 52.554688 47.40625 50.324219 48.886719 47.625 Z M 48.886719 53.449219 "/>
<path style=" stroke:none;fill-rule:nonzero;fill:rgb(0%,0%,0%);fill-opacity:1;" d="M 45.519531 16.589844 L 10.707031 16.589844 C 10.164062 16.589844 9.722656 17.03125 9.722656 17.574219 C 9.722656 18.117188 10.164062 18.554688 10.707031 18.554688 L 45.519531 18.554688 C 46.0625 18.554688 46.5 18.117188 46.5 17.574219 C 46.5 17.03125 46.0625 16.589844 45.519531 16.589844 Z M 45.519531 16.589844 "/>
<path style=" stroke:none;fill-rule:nonzero;fill:rgb(0%,0%,0%);fill-opacity:1;" d="M 45.519531 21.058594 L 10.707031 21.058594 C 10.164062 21.058594 9.722656 21.5 9.722656 22.042969 C 9.722656 22.585938 10.164062 23.023438 10.707031 23.023438 L 45.519531 23.023438 C 46.0625 23.023438 46.5 22.585938 46.5 22.042969 C 46.5 21.5 46.0625 21.058594 45.519531 21.058594 Z M 45.519531 21.058594 "/>
<path style=" stroke:none;fill-rule:nonzero;fill:rgb(0%,0%,0%);fill-opacity:1;" d="M 45.519531 25.527344 L 10.707031 25.527344 C 10.164062 25.527344 9.722656 25.96875 9.722656 26.511719 C 9.722656 27.054688 10.164062 27.492188 10.707031 27.492188 L 45.519531 27.492188 C 46.0625 27.492188 46.5 27.054688 46.5 26.511719 C 46.5 25.96875 46.0625 25.527344 45.519531 25.527344 Z M 45.519531 25.527344 "/>
<path style=" stroke:none;fill-rule:nonzero;fill:rgb(0%,0%,0%);fill-opacity:1;" d="M 45.519531 29.996094 L 10.707031 29.996094 C 10.164062 29.996094 9.722656 30.4375 9.722656 30.980469 C 9.722656 31.523438 10.164062 31.960938 10.707031 31.960938 L 45.519531 31.960938 C 46.0625 31.960938 46.5 31.523438 46.5 30.980469 C 46.5 30.4375 46.0625 29.996094 45.519531 29.996094 Z M 45.519531 29.996094 "/>
<path style=" stroke:none;fill-rule:nonzero;fill:rgb(0%,0%,0%);fill-opacity:1;" d="M 46.5 35.449219 C 46.5 34.90625 46.0625 34.464844 45.519531 34.464844 L 10.707031 34.464844 C 10.164062 34.464844 9.722656 34.90625 9.722656 35.449219 C 9.722656 35.992188 10.164062 36.429688 10.707031 36.429688 L 45.519531 36.429688 C 46.0625 36.429688 46.5 35.992188 46.5 35.449219 Z M 46.5 35.449219 "/>
<path style=" stroke:none;fill-rule:nonzero;fill:rgb(0%,0%,0%);fill-opacity:1;" d="M 50.941406 12.070312 C 50.941406 12.664062 50.460938 13.140625 49.871094 13.140625 C 49.277344 13.140625 48.800781 12.664062 48.800781 12.070312 C 48.800781 11.480469 49.277344 11 49.871094 11 C 50.460938 11 50.941406 11.480469 50.941406 12.070312 Z M 50.941406 12.070312 "/>
</g>
</svg>
