<?xml version="1.0" encoding="UTF-8"?>
<svg xmlns="http://www.w3.org/2000/svg" xmlns:xlink="http://www.w3.org/1999/xlink" width="56px" height="56px" viewBox="0 0 56 56" version="1.1">
<defs>
<filter id="alpha" filterUnits="objectBoundingBox" x="0%" y="0%" width="100%" height="100%">
  <feColorMatrix type="matrix" in="SourceGraphic" values="0 0 0 0 1 0 0 0 0 1 0 0 0 0 1 0 0 0 1 0"/>
</filter>
<mask id="mask0">
  <g filter="url(#alpha)">
<rect x="0" y="0" width="56" height="56" style="fill:rgb(0%,0%,0%);fill-opacity:0.8;stroke:none;"/>
  </g>
</mask>
<clipPath id="clip1">
  <rect x="0" y="0" width="56" height="56"/>
</clipPath>
<g id="surface5" clip-path="url(#clip1)">
<path style=" stroke:none;fill-rule:nonzero;fill:rgb(97.647059%,97.254902%,78.431373%);fill-opacity:1;" d="M 27.4375 11.160156 C 27.4375 8.964844 25.710938 7.183594 23.578125 7.183594 C 21.445312 7.183594 19.714844 8.964844 19.714844 11.160156 C 19.714844 13.359375 21.445312 15.140625 23.578125 15.140625 C 25.710938 15.140625 27.4375 13.359375 27.4375 11.160156 Z M 27.4375 11.160156 "/>
</g>
<mask id="mask1">
  <g filter="url(#alpha)">
<rect x="0" y="0" width="56" height="56" style="fill:rgb(0%,0%,0%);fill-opacity:0.501961;stroke:none;"/>
  </g>
</mask>
<clipPath id="clip2">
  <rect x="0" y="0" width="56" height="56"/>
</clipPath>
<g id="surface8" clip-path="url(#clip2)">
<path style=" stroke:none;fill-rule:nonzero;fill:rgb(15.294118%,36.078431%,56.862745%);fill-opacity:1;" d="M 31.617188 33.195312 L 3.703125 33.195312 L 13.628906 21.097656 C 15.84375 18.394531 19.480469 18.394531 21.695312 21.097656 L 25.460938 25.695312 Z M 31.617188 33.195312 "/>
</g>
<mask id="mask2">
  <g filter="url(#alpha)">
<rect x="0" y="0" width="56" height="56" style="fill:rgb(0%,0%,0%);fill-opacity:0.501961;stroke:none;"/>
  </g>
</mask>
<clipPath id="clip3">
  <rect x="0" y="0" width="56" height="56"/>
</clipPath>
<g id="surface11" clip-path="url(#clip3)">
<path style=" stroke:none;fill-rule:nonzero;fill:rgb(15.294118%,36.078431%,56.862745%);fill-opacity:1;" d="M 52.339844 27.773438 L 52.339844 33.195312 L 19.714844 33.195312 L 25.894531 25.695312 L 34.117188 15.730469 C 36.390625 12.953125 40.136719 12.953125 42.414062 15.730469 Z M 52.339844 27.773438 "/>
</g>
<mask id="mask3">
  <g filter="url(#alpha)">
<rect x="0" y="0" width="56" height="56" style="fill:rgb(0%,0%,0%);fill-opacity:0.101961;stroke:none;"/>
  </g>
</mask>
<clipPath id="clip4">
  <rect x="0" y="0" width="56" height="56"/>
</clipPath>
<g id="surface14" clip-path="url(#clip4)">
<path style=" stroke:none;fill-rule:nonzero;fill:rgb(1.568627%,0%,0%);fill-opacity:1;" d="M 28 0 L 56 0 L 56 36.59375 L 28 36.59375 Z M 28 0 "/>
</g>
</defs>
<g id="surface1">
<path style=" stroke:none;fill-rule:nonzero;fill:rgb(100%,100%,100%);fill-opacity:1;" d="M 0 0 L 56 0 L 56 36.59375 L 0 36.59375 Z M 0 0 "/>
<path style=" stroke:none;fill-rule:nonzero;fill:rgb(71.372549%,87.843137%,94.117647%);fill-opacity:1;" d="M 3.660156 3.402344 L 52.339844 3.402344 L 52.339844 33.195312 L 3.660156 33.195312 Z M 3.660156 3.402344 "/>
<use xlink:href="#surface5" mask="url(#mask0)"/>
<use xlink:href="#surface8" mask="url(#mask1)"/>
<use xlink:href="#surface11" mask="url(#mask2)"/>
<use xlink:href="#surface14" mask="url(#mask3)"/>
</g>
</svg>
