<?xml version="1.0" encoding="UTF-8"?>
<svg xmlns="http://www.w3.org/2000/svg" xmlns:xlink="http://www.w3.org/1999/xlink" width="24px" height="24px" viewBox="0 0 24 24" version="1.1">
<g id="surface1">
<path style="fill-rule:nonzero;fill:rgb(20.784314%,51.764706%,89.411765%);fill-opacity:1;stroke-width:0.00032;stroke-linecap:butt;stroke-linejoin:miter;stroke:rgb(60%,75.686275%,94.509804%);stroke-opacity:1;stroke-miterlimit:4;" d="M 30.291667 2.869792 L 20.708333 28.130208 C 20.317708 29.161458 19.364583 29.364583 18.588542 28.588542 C 18.588542 28.588542 12.552083 22.552083 12 22 C 11.453125 21.447917 11.640625 20.369792 12.427083 19.598958 L 25.739583 6.489583 C 26.526042 5.713542 26.453125 5.630208 25.578125 6.302083 L 10.588542 17.786458 C 9.713542 18.453125 8.364583 18.364583 7.588542 17.588542 L 3.411458 13.411458 C 2.635417 12.635417 2.838542 11.682292 3.869792 11.291667 L 29.130208 1.708333 C 30.161458 1.317708 30.682292 1.838542 30.291667 2.869792 Z M 8.708333 20.119792 C 8.317708 19.734375 8 19.864583 8 20.411458 L 8 25 C 8 25.552083 8.385417 25.765625 8.859375 25.484375 L 11.260417 24.041667 C 11.729167 23.760417 11.796875 23.213542 11.40625 22.822917 Z M 8.708333 20.119792 " transform="matrix(0.75,0,0,0.75,0,0)"/>
</g>
</svg>
