<?xml version="1.0" encoding="UTF-8"?>
<svg xmlns="http://www.w3.org/2000/svg" xmlns:xlink="http://www.w3.org/1999/xlink" width="24px" height="24px" viewBox="0 0 24 24" version="1.1">
<g id="surface1">
<path style=" stroke:none;fill-rule:nonzero;fill:rgb(60%,75.686275%,94.509804%);fill-opacity:1;" d="M 14.148438 3 C 13.992188 3.011719 13.84375 3.089844 13.738281 3.210938 C 13.636719 3.332031 13.585938 3.492188 13.601562 3.648438 L 13.601562 8.949219 C 6 9.699219 1.101562 14.898438 1 20.148438 C 1 20.449219 1.101562 20.648438 1.300781 20.648438 C 1.5 20.648438 1.648438 20.5 1.851562 20.101562 C 3.050781 17.398438 5.75 15.851562 13.601562 15.5 L 13.601562 20.351562 C 13.585938 20.507812 13.636719 20.667969 13.738281 20.789062 C 13.84375 20.910156 13.992188 20.988281 14.148438 21 C 14.308594 21.007812 14.460938 20.933594 14.550781 20.800781 L 22.800781 12.550781 C 23.054688 12.265625 23.054688 11.835938 22.800781 11.550781 L 14.550781 3.199219 C 14.460938 3.066406 14.308594 2.992188 14.148438 3 Z M 14.148438 3 "/>
</g>
</svg>
