<?xml version="1.0" encoding="UTF-8"?>
<svg xmlns="http://www.w3.org/2000/svg" xmlns:xlink="http://www.w3.org/1999/xlink" width="56px" height="56px" viewBox="0 0 56 56" version="1.1">
<g id="surface1">
<path style=" stroke:none;fill-rule:nonzero;fill:rgb(54.901961%,66.666667%,100%);fill-opacity:1;" d="M 41.523438 19.25 L 46.132812 19.25 C 46.980469 19.25 47.671875 19.753906 47.671875 20.371094 L 47.671875 35.535156 C 47.671875 36.152344 46.980469 36.65625 46.132812 36.65625 L 42.289062 36.65625 "/>
<path style=" stroke:none;fill-rule:nonzero;fill:rgb(20%,20%,20%);fill-opacity:1;" d="M 46.128906 38.007812 L 42.289062 38.007812 L 42.289062 35.300781 L 46.128906 35.300781 C 46.207031 35.300781 46.265625 35.289062 46.308594 35.277344 L 46.308594 20.621094 C 46.261719 20.613281 46.199219 20.601562 46.128906 20.601562 L 41.523438 20.601562 L 41.523438 17.894531 L 46.132812 17.894531 C 47.753906 17.894531 49.023438 18.980469 49.023438 20.371094 L 49.023438 35.535156 C 49.023438 36.925781 47.746094 38.007812 46.128906 38.007812 Z M 46.128906 38.007812 "/>
<path style=" stroke:none;fill-rule:nonzero;fill:rgb(100%,100%,100%);fill-opacity:1;" d="M 11.128906 14.109375 L 40.167969 14.109375 C 40.917969 14.109375 41.519531 14.714844 41.519531 15.460938 L 41.519531 40.496094 C 41.519531 41.246094 40.910156 41.847656 40.167969 41.847656 L 11.128906 41.847656 C 10.378906 41.847656 9.777344 41.238281 9.777344 40.496094 L 9.777344 15.460938 C 9.773438 14.714844 10.378906 14.109375 11.128906 14.109375 Z M 11.128906 14.109375 "/>
<path style=" stroke:none;fill-rule:nonzero;fill:rgb(20%,20%,20%);fill-opacity:1;" d="M 40.167969 43.203125 L 11.128906 43.203125 C 9.636719 43.203125 8.421875 41.988281 8.421875 40.496094 L 8.421875 15.460938 C 8.421875 13.96875 9.636719 12.753906 11.128906 12.753906 L 40.167969 12.753906 C 41.660156 12.753906 42.875 13.96875 42.875 15.460938 L 42.875 40.496094 C 42.875 41.988281 41.660156 43.203125 40.167969 43.203125 Z M 11.128906 15.460938 L 11.128906 40.496094 L 40.167969 40.496094 L 40.167969 15.460938 Z M 11.128906 15.460938 "/>
<path style=" stroke:none;fill-rule:nonzero;fill:rgb(54.901961%,66.666667%,100%);fill-opacity:1;" d="M 32.582031 28.503906 L 22.257812 35.875 C 21.953125 36.09375 21.53125 36.023438 21.3125 35.714844 C 21.230469 35.601562 21.1875 35.464844 21.1875 35.324219 L 21.1875 20.578125 C 21.1875 20.207031 21.488281 19.902344 21.863281 19.902344 C 22.007812 19.902344 22.144531 19.945312 22.257812 20.027344 L 32.582031 27.398438 C 32.890625 27.617188 32.960938 28.039062 32.742188 28.34375 C 32.699219 28.40625 32.644531 28.460938 32.582031 28.503906 Z M 32.582031 28.503906 "/>
<path style=" stroke:none;fill-rule:nonzero;fill:rgb(20%,20%,20%);fill-opacity:1;" d="M 21.871094 37.351562 C 21.753906 37.351562 21.644531 37.339844 21.53125 37.324219 C 20.996094 37.238281 20.523438 36.941406 20.210938 36.5 C 19.964844 36.152344 19.835938 35.742188 19.835938 35.316406 L 19.835938 20.578125 C 19.835938 19.457031 20.742188 18.550781 21.863281 18.550781 C 22.289062 18.550781 22.695312 18.679688 23.046875 18.925781 L 33.371094 26.300781 C 33.8125 26.617188 34.101562 27.082031 34.191406 27.617188 C 34.277344 28.152344 34.15625 28.6875 33.839844 29.132812 C 33.710938 29.316406 33.550781 29.476562 33.363281 29.609375 L 23.039062 36.980469 C 22.695312 37.226562 22.285156 37.351562 21.871094 37.351562 Z M 22.535156 21.898438 L 22.535156 34.011719 L 31.019531 27.957031 Z M 31.796875 27.398438 C 31.796875 27.398438 31.796875 27.402344 31.796875 27.398438 Z M 31.796875 27.398438 "/>
</g>
</svg>
